<?xml version="1.0" encoding="UTF-8"?>
<!-- Generator: visioncortex VTracer 0.6.12 -->
<svg version="1.1" xmlns="http://www.w3.org/2000/svg" width="200" height="200">
<path d="M0 0 C6.147 0.715 12.313 0.642 18.492 0.623 C20.558 0.617 22.625 0.623 24.691 0.629 C31.563 0.632 38.246 0.371 45.062 -0.508 C52.456 -0.949 60.446 -1.41 67.062 2.492 C71.309 15.231 67.244 31.874 65.292 44.754 C64.81 47.947 64.355 51.144 63.902 54.342 C63.598 56.412 63.292 58.481 62.984 60.551 C62.852 61.487 62.719 62.424 62.583 63.389 C61.256 71.949 58.983 80.51 53.855 87.625 C53.268 88.451 52.681 89.278 52.076 90.129 C51.474 90.95 50.871 91.771 50.25 92.617 C49.659 93.446 49.068 94.275 48.459 95.129 C32.643 117.171 32.643 117.171 25.062 118.492 C19.046 119.071 14.441 118.492 9.062 115.492 C1.574 109.127 -4.043 100.142 -9.625 92.117 C-10.18 91.344 -10.735 90.57 -11.307 89.773 C-17.559 80.763 -20.335 71.327 -21.859 60.551 C-21.934 60.047 -21.934 60.047 -22.313 57.499 C-22.624 55.381 -22.93 53.263 -23.23 51.143 C-23.683 47.959 -24.163 44.78 -24.645 41.6 C-29.034 11.78 -29.034 11.78 -25.938 2.492 C-18.3 -2.012 -8.424 -1.086 0 0 Z M-13.938 29.492 C-14.267 30.152 -14.597 30.812 -14.938 31.492 C-14.236 31.203 -13.535 30.915 -12.812 30.617 C-11.864 30.246 -10.915 29.875 -9.938 29.492 C-9.092 29.142 -8.246 28.791 -7.375 28.43 C-0.415 26.531 6.879 26.428 14.062 26.492 C14.445 24.836 14.776 23.168 15.062 21.492 C14.062 20.492 14.062 20.492 11.359 20.359 C1.98 20.737 -6.444 23.853 -13.938 29.492 Z M27.062 20.492 C26.68 22.148 26.349 23.817 26.062 25.492 C27.062 26.492 27.062 26.492 29.215 26.52 C30.134 26.49 31.053 26.46 32 26.43 C40.194 26.366 46.79 27.674 54.062 31.492 C54.722 31.162 55.382 30.832 56.062 30.492 C46.328 23.529 39.054 21.072 27.062 20.492 Z M-11.938 44.492 C-11.608 45.152 -11.278 45.812 -10.938 46.492 C-3.575 46.716 2.933 46.393 10.062 44.492 C9.088 42.055 8.429 40.733 6.207 39.273 C-1.531 36.455 -6.56 38.682 -11.938 44.492 Z M31.062 42.492 C31.062 43.152 31.062 43.812 31.062 44.492 C38.4 46.84 45.406 46.686 53.062 46.492 C52.108 45.343 51.149 44.198 50.188 43.055 C49.654 42.417 49.12 41.779 48.57 41.121 C46.782 39.189 45.687 38.567 43.074 38.254 C37.795 38.085 34.824 38.367 31.062 42.492 Z M3.062 84.492 C3.062 85.152 3.062 85.812 3.062 86.492 C15.273 86.492 27.483 86.492 40.062 86.492 C38.062 83.492 38.062 83.492 35.062 82.492 C30.914 82.288 26.764 82.306 22.611 82.307 C20.57 82.305 18.529 82.287 16.488 82.268 C15.203 82.266 13.918 82.264 12.594 82.262 C11.414 82.258 10.233 82.254 9.018 82.249 C6.062 82.492 6.062 82.492 3.062 84.492 Z " fill="#FFFFFF" transform="translate(78.9375,49.5078125)"/>
<path d="M0 0 C16.711 14.351 27.963 34.465 30.777 56.398 C32.281 84.21 25.449 107.233 6.777 128.398 C6.249 129.022 5.72 129.646 5.176 130.289 C-9.13 145.989 -32.074 154.547 -52.887 155.523 C-78.942 156.073 -101.899 146.231 -120.598 128.398 C-137.999 110.051 -144.721 86.729 -144.438 61.965 C-143.879 41.386 -134.581 22.711 -121.223 7.398 C-120.958 7.092 -120.958 7.092 -119.617 5.539 C-88.369 -28.101 -34.298 -28.248 0 0 Z M-110.223 7.398 C-110.649 7.785 -110.649 7.785 -112.805 9.738 C-126.903 23.118 -136.022 41.889 -137.223 61.398 C-137.276 62.254 -137.328 63.11 -137.383 63.992 C-137.798 77.439 -134.74 90.193 -129.223 102.398 C-128.804 103.332 -128.385 104.265 -127.953 105.227 C-124.026 113.149 -118.404 119.208 -112.223 125.398 C-111.49 126.142 -110.758 126.886 -110.004 127.652 C-94.006 142.904 -73.302 147.993 -51.754 147.668 C-33.569 147.032 -16.583 139.715 -3.223 127.398 C-2.371 126.626 -1.519 125.854 -0.641 125.059 C13.458 111.679 22.576 92.907 23.777 73.398 C23.804 72.97 23.804 72.97 23.938 70.805 C24.353 57.358 21.295 44.604 15.777 32.398 C15.358 31.465 14.939 30.532 14.508 29.57 C10.581 21.648 4.959 15.589 -1.223 9.398 C-1.955 8.655 -2.687 7.911 -3.441 7.145 C-19.44 -8.107 -40.143 -13.196 -61.691 -12.871 C-79.876 -12.235 -96.863 -4.918 -110.223 7.398 Z " fill="#FFFFFF" transform="translate(156.22265625,32.6015625)"/>
</svg>
