<?xml version="1.0" encoding="UTF-8"?>
<!-- Generator: visioncortex VTracer 0.6.12 -->
<svg version="1.1" xmlns="http://www.w3.org/2000/svg" width="200" height="200">
<path d="M0 0 C1.684 1.46 3.352 2.937 5 4.438 C5.327 4.73 5.327 4.73 6.984 6.211 C21.679 20.06 31.596 42.217 32.203 62.344 C32.565 88.123 25.734 110.084 8 129.438 C-5.191 142.971 -22.147 152.597 -41 155.438 C-41.71 155.547 -42.421 155.657 -43.152 155.77 C-66.394 158.833 -90.178 152.763 -108.812 138.5 C-127.475 123.727 -139.939 103.346 -143 79.438 C-144.63 53.224 -138.431 29.812 -121.054 9.643 C-89.84 -25.04 -36.276 -29.09 0 0 Z M-109 8.438 C-109.426 8.824 -109.426 8.824 -111.582 10.777 C-125.682 24.158 -134.797 42.928 -136 62.438 C-136.053 63.282 -136.106 64.126 -136.16 64.996 C-136.579 78.42 -133.95 91.401 -128 103.438 C-127.581 104.348 -127.162 105.258 -126.73 106.195 C-122.795 114.157 -117.208 120.221 -111 126.438 C-110.268 127.181 -109.536 127.925 -108.781 128.691 C-92.783 143.943 -72.08 149.032 -50.531 148.707 C-32.347 148.071 -15.36 140.754 -2 128.438 C-1.148 127.665 -0.296 126.893 0.582 126.098 C16.609 110.887 24.628 90.317 25.375 68.438 C24.987 56.166 22.447 44.456 17 33.438 C16.581 32.527 16.162 31.617 15.73 30.68 C11.795 22.718 6.208 16.654 0 10.438 C-0.732 9.694 -1.464 8.95 -2.219 8.184 C-18.217 -7.068 -38.92 -12.157 -60.469 -11.832 C-78.653 -11.196 -95.64 -3.879 -109 8.438 Z " fill="#FFFFFF" transform="translate(155,31.5625)"/>
<path d="M0 0 C1.155 0.495 1.155 0.495 7 3 C5.625 5 5.625 5 3 7 C0.47 7.252 -1.928 7.188 -4.465 7.043 C-7.123 6.998 -9.419 7.395 -12 8 C-9.945 9.967 -7.882 11.924 -5.812 13.875 C-5.234 14.431 -4.656 14.986 -4.061 15.559 C-3.49 16.094 -2.92 16.629 -2.332 17.18 C-1.814 17.672 -1.295 18.164 -0.761 18.671 C1 20 1 20 6 22 C8.97 18.37 11.94 14.74 15 11 C18.621 12.811 20.658 14.349 23.562 17.062 C28.122 21.263 32.862 25.145 37.75 28.957 C39.901 30.91 40.943 32.328 42 35 C41.238 35.811 40.476 36.622 39.691 37.457 C33.786 43.779 28.103 50.159 22.742 56.953 C21 59 21 59 19 60 C9.928 52.768 1.207 45.207 -7 37 C-4.03 33.37 -1.06 29.74 2 26 C-5.016 18.984 -12.291 12.251 -20 6 C-19.34 5.67 -18.68 5.34 -18 5 C-17.67 4.34 -17.34 3.68 -17 3 C-17 3.66 -17 4.32 -17 5 C-16.276 4.856 -15.551 4.711 -14.805 4.562 C-9.815 3.604 -5.107 2.724 0 3 C0 2.01 0 1.02 0 0 Z M16 15 C13.9 17.139 11.846 19.299 9.812 21.5 C9.222 22.137 8.631 22.774 8.023 23.43 C4.043 27.763 0.377 32.175 -3 37 C-0.814 39.043 1.374 41.085 3.562 43.125 C4.172 43.695 4.781 44.265 5.408 44.852 C8.519 47.748 11.652 50.618 14.84 53.43 C15.399 53.925 15.959 54.419 16.535 54.929 C18 56 18 56 20 56 C21.414 54.427 22.756 52.789 24.062 51.125 C28.51 45.559 33.182 40.251 38 35 C36.74 31.219 35.117 30.259 32 27.812 C27.415 24.161 23.008 20.385 18.68 16.434 C17 15 17 15 16 15 Z " fill="#FFFFFF" transform="translate(124,94)"/>
<path d="M0 0 C6.37 3.365 10.094 6.845 12.312 13.75 C13.234 19.612 12.661 24.734 9.723 29.926 C6.503 34.09 2.283 37.093 -2.688 38.75 C-9.448 39.483 -15.189 38.988 -20.688 34.75 C-25.95 29.155 -28.032 24.59 -27.902 16.836 C-27.273 10.722 -24.224 6.639 -19.688 2.75 C-13.231 -1.555 -7.341 -2.488 0 0 Z M-22.125 8.812 C-24.93 14.086 -25.738 19.11 -24.074 24.875 C-22.06 29.559 -19.441 32.45 -14.961 34.898 C-10.019 36.75 -5.339 36.784 -0.414 34.863 C4.327 32.211 7.674 29 9.312 23.75 C10.215 18.49 9.904 14.093 7.312 9.375 C3.98 4.737 -0.116 2.416 -5.699 1.375 C-12.502 0.947 -17.926 3.536 -22.125 8.812 Z " fill="#FFFFFF" transform="translate(72.6875,77.25)"/>
<path d="M0 0 C4.625 2.644 7.318 6.027 10 10.625 C11.653 17.235 11.5 23.553 8.094 29.551 C4.703 33.95 0.208 37.388 -5.312 38.375 C-12.383 38.839 -16.857 37.464 -23 33.75 C-27.274 29.361 -29.017 24.442 -29.875 18.438 C-29.522 12.549 -26.773 6.733 -22.527 2.664 C-15.784 -2.29 -7.722 -3.538 0 0 Z M-23.75 8.438 C-26.231 13.103 -26.859 17.147 -26.312 22.375 C-24.282 27.825 -21.091 31.798 -16 34.688 C-9.764 36.283 -4.73 35.908 0.855 32.758 C4.957 29.662 7.235 25.936 8.129 20.879 C8.397 15.208 7.546 10.657 3.688 6.375 C-0.088 3.017 -3.72 1.076 -8.812 0.812 C-15.18 1.219 -19.785 3.456 -23.75 8.438 Z " fill="#FFFFFF" transform="translate(106.3125,47.625)"/>
<path d="M0 0 C0.66 0 1.32 0 2 0 C1.67 0.99 1.34 1.98 1 3 C0.67 2.01 0.34 1.02 0 0 Z " fill="#FFFFFF" transform="translate(102,101)"/>
<path d="M0 0 C0.66 0 1.32 0 2 0 C2 0.66 2 1.32 2 2 C1.34 2 0.68 2 0 2 C0 1.34 0 0.68 0 0 Z " fill="#FFFFFF" transform="translate(65,120)"/>
<path d="M0 0 C0.99 0.33 1.98 0.66 3 1 C2.01 1 1.02 1 0 1 C0 0.67 0 0.34 0 0 Z " fill="#FFFFFF" transform="translate(45,115)"/>
<path d="M0 0 C0.66 0 1.32 0 2 0 C2 0.66 2 1.32 2 2 C1.34 2 0.68 2 0 2 C0 1.34 0 0.68 0 0 Z " fill="#FFFFFF" transform="translate(93,109)"/>
<path d="M0 0 C0.66 0 1.32 0 2 0 C2 0.66 2 1.32 2 2 C1.34 2 0.68 2 0 2 C0 1.34 0 0.68 0 0 Z " fill="#FFFFFF" transform="translate(118,50)"/>
<path d="M0 0 C0.66 0 1.32 0 2 0 C2 0.66 2 1.32 2 2 C1.34 2 0.68 2 0 2 C0 1.34 0 0.68 0 0 Z " fill="#FFFFFF" transform="translate(92,37)"/>
<path d="M0 0 C0.33 0.66 0.66 1.32 1 2 C0.34 1.67 -0.32 1.34 -1 1 C-0.67 0.67 -0.34 0.34 0 0 Z " fill="#FFFFFF" transform="translate(61,120)"/>
<path d="M0 0 C0.66 0.66 1.32 1.32 2 2 C1.34 2 0.68 2 0 2 C0 1.34 0 0.68 0 0 Z " fill="#FFFFFF" transform="translate(75,118)"/>
<path d="M0 0 C0.33 0.165 0.33 0.165 2 1 C1.67 1.165 1.67 1.165 0 2 C0 1.34 0 0.68 0 0 Z " fill="#FFFFFF" transform="translate(50,118)"/>
<path d="M0 0 C0.33 0.165 0.33 0.165 2 1 C1.67 1.165 1.67 1.165 0 2 C0 1.34 0 0.68 0 0 Z " fill="#FFFFFF" transform="translate(80,117)"/>
<path d="M0 0 C0.33 0.66 0.66 1.32 1 2 C0.34 1.67 -0.32 1.34 -1 1 C-0.67 0.67 -0.34 0.34 0 0 Z " fill="#FFFFFF" transform="translate(43,111)"/>
<path d="M0 0 C0.66 0 1.32 0 2 0 C1.67 0.66 1.34 1.32 1 2 C0.67 1.34 0.34 0.68 0 0 Z " fill="#FFFFFF" transform="translate(39,107)"/>
<path d="M0 0 C0.66 0.66 1.32 1.32 2 2 C1.34 2 0.68 2 0 2 C0 1.34 0 0.68 0 0 Z " fill="#FFFFFF" transform="translate(38,91)"/>
<path d="M0 0 C0.33 0.66 0.66 1.32 1 2 C0.34 1.67 -0.32 1.34 -1 1 C-0.67 0.67 -0.34 0.34 0 0 Z " fill="#FFFFFF" transform="translate(45,72)"/>
<path d="M0 0 C0.33 0.165 0.33 0.165 2 1 C1.67 1.165 1.67 1.165 0 2 C0 1.34 0 0.68 0 0 Z " fill="#FFFFFF" transform="translate(120,70)"/>
<path d="M0 0 C0.33 0.165 0.33 0.165 2 1 C1.67 1.165 1.67 1.165 0 2 C0 1.34 0 0.68 0 0 Z " fill="#FFFFFF" transform="translate(47,68)"/>
<path d="M0 0 C0.33 0.165 0.33 0.165 2 1 C1.67 1.165 1.67 1.165 0 2 C0 1.34 0 0.68 0 0 Z " fill="#FFFFFF" transform="translate(120,55)"/>
<path d="M0 0 C0.33 0.66 0.66 1.32 1 2 C0.34 1.67 -0.32 1.34 -1 1 C-0.67 0.67 -0.34 0.34 0 0 Z " fill="#FFFFFF" transform="translate(61,52)"/>
<path d="M0 0 C0.66 0.66 1.32 1.32 2 2 C1.34 2 0.68 2 0 2 C0 1.34 0 0.68 0 0 Z " fill="#FFFFFF" transform="translate(112,42)"/>
<path d="M0 0 C0.33 0.66 0.66 1.32 1 2 C0.34 1.67 -0.32 1.34 -1 1 C-0.67 0.67 -0.34 0.34 0 0 Z " fill="#FFFFFF" transform="translate(103,38)"/>
<path d="M0 0 C2 1 2 1 2 1 Z " fill="#FFFFFF" transform="translate(70,120)"/>
<path d="M0 0 C2 1 2 1 2 1 Z " fill="#FFFFFF" transform="translate(89,112)"/>
<path d="M0 0 C2 1 2 1 2 1 Z " fill="#FFFFFF" transform="translate(97,106)"/>
<path d="M0 0 C2 1 2 1 2 1 Z " fill="#FFFFFF" transform="translate(38,102)"/>
<path d="" fill="#FFFFFF" transform="translate(0,0)"/>
<path d="" fill="#FFFFFF" transform="translate(0,0)"/>
<path d="M0 0 C2 1 2 1 2 1 Z " fill="#FFFFFF" transform="translate(39,87)"/>
<path d="" fill="#FFFFFF" transform="translate(0,0)"/>
<path d="M0 0 C2 1 2 1 2 1 Z " fill="#FFFFFF" transform="translate(50,64)"/>
<path d="" fill="#FFFFFF" transform="translate(0,0)"/>
<path d="M0 0 C2 1 2 1 2 1 Z " fill="#FFFFFF" transform="translate(53,60)"/>
<path d="" fill="#FFFFFF" transform="translate(0,0)"/>
<path d="M0 0 C2 1 2 1 2 1 Z " fill="#FFFFFF" transform="translate(73,44)"/>
<path d="" fill="#FFFFFF" transform="translate(0,0)"/>
<path d="M0 0 C2 1 2 1 2 1 Z " fill="#FFFFFF" transform="translate(107,40)"/>
<path d="M0 0 C2 1 2 1 2 1 Z " fill="#FFFFFF" transform="translate(82,40)"/>
<path d="" fill="#FFFFFF" transform="translate(0,0)"/>
<path d="" fill="#FFFFFF" transform="translate(0,0)"/>
<path d="" fill="#FFFFFF" transform="translate(0,0)"/>
<path d="" fill="#FFFFFF" transform="translate(0,0)"/>
<path d="" fill="#FFFFFF" transform="translate(0,0)"/>
<path d="" fill="#FFFFFF" transform="translate(0,0)"/>
<path d="" fill="#FFFFFF" transform="translate(0,0)"/>
<path d="" fill="#FFFFFF" transform="translate(0,0)"/>
<path d="" fill="#FFFFFF" transform="translate(0,0)"/>
<path d="" fill="#FFFFFF" transform="translate(0,0)"/>
<path d="" fill="#FFFFFF" transform="translate(0,0)"/>
<path d="" fill="#FFFFFF" transform="translate(0,0)"/>
<path d="" fill="#FFFFFF" transform="translate(0,0)"/>
<path d="" fill="#FFFFFF" transform="translate(0,0)"/>
<path d="" fill="#FFFFFF" transform="translate(0,0)"/>
<path d="" fill="#FFFFFF" transform="translate(0,0)"/>
</svg>
