<?xml version="1.0" encoding="UTF-8"?>
<!-- Generator: visioncortex VTracer 0.6.12 -->
<svg version="1.1" xmlns="http://www.w3.org/2000/svg" width="200" height="200">
<path d="M0 0 C14.478 13.371 24.679 34.788 25.894 54.363 C26.805 77.959 22.145 99.584 6.754 118.105 C6.042 118.968 5.331 119.83 4.598 120.719 C-11.073 138.9 -32.38 149.276 -56.246 151.105 C-81.957 152.746 -104.063 142.602 -123.27 126.398 C-138.976 111.835 -148.422 89.95 -149.625 68.738 C-150.422 44.302 -142.917 22.34 -126.871 3.793 C-113.338 -10.541 -95.937 -20.927 -76.246 -23.895 C-75.536 -24.004 -74.826 -24.114 -74.094 -24.227 C-45.833 -27.952 -21.249 -17.923 0 0 Z M-115.246 3.105 C-115.672 3.492 -115.672 3.492 -117.828 5.445 C-131.928 18.826 -141.043 37.596 -142.246 57.105 C-142.299 57.95 -142.352 58.794 -142.406 59.664 C-142.825 73.088 -140.196 86.069 -134.246 98.105 C-133.827 99.016 -133.408 99.926 -132.977 100.863 C-129.041 108.825 -123.454 114.889 -117.246 121.105 C-116.514 121.849 -115.782 122.593 -115.027 123.359 C-99.029 138.611 -78.326 143.7 -56.777 143.375 C-39.342 142.765 -22.155 135.933 -9.246 124.105 C-8.342 123.282 -7.439 122.458 -6.508 121.609 C9.884 105.972 18.359 85.647 19.129 63.105 C18.741 50.834 16.201 39.124 10.754 28.105 C10.335 27.195 9.916 26.285 9.484 25.348 C5.549 17.386 -0.038 11.322 -6.246 5.105 C-6.978 4.362 -7.71 3.618 -8.465 2.852 C-24.692 -12.619 -45.511 -17.464 -67.301 -17.164 C-85.204 -16.588 -102.119 -8.996 -115.246 3.105 Z " fill="#FFFFFF" transform="translate(161.24609375,36.89453125)"/>
<path d="M0 0 C0.722 0.289 1.444 0.578 2.188 0.875 C4.752 2.467 5.079 4.171 6 7 C6.34 7.775 6.681 8.549 7.031 9.348 C9.789 16.899 7.922 24.446 5.363 31.785 C3.617 34.622 2.125 35.024 -1 36 C-1.907 36.516 -2.815 37.031 -3.75 37.562 C-9.427 40.074 -14.617 40.667 -20.625 38.938 C-26.989 36.461 -31.372 32.83 -34.438 26.688 C-36.922 20.266 -36.922 14.734 -34.438 8.312 C-31.533 2.4 -26.926 -1.299 -21 -4 C-13.784 -6.062 -6.064 -4.28 0 0 Z M-29 5 C-32.356 10.02 -33.784 14.953 -33 21 C-31.099 26.512 -29.047 31.295 -23.801 34.23 C-16.716 37.409 -12.145 37.544 -4.812 34.812 C-0.282 31.893 2.919 28.015 5 23 C5.981 16.352 5.402 11.142 1.434 5.656 C-2.066 1.613 -5.237 -0.672 -10.602 -1.309 C-18.268 -1.635 -23.532 -0.642 -29 5 Z " fill="#FFFFFF" transform="translate(77,83)"/>
<path d="M0 0 C4.291 4.614 6.981 10.128 7.324 16.457 C6.882 23.049 4.396 28.728 -0.426 33.27 C-5.696 37.304 -11.272 39.295 -17.926 38.77 C-21.787 38.157 -24.845 36.868 -28.238 34.895 C-28.897 34.634 -29.556 34.374 -30.234 34.105 C-34.445 31.561 -35.788 26.383 -37.238 21.895 C-38.436 15.034 -37.387 9.203 -33.992 3.129 C-30.193 -1.711 -24.975 -4.193 -19.238 -6.105 C-11.913 -6.105 -5.715 -4.764 0 0 Z M-32.238 6.52 C-35.002 11.475 -35.122 16.37 -34.238 21.895 C-32.446 27.232 -28.816 30.753 -24.238 33.895 C-19.135 35.974 -14.544 36.451 -9.238 34.895 C-3.088 32.094 1.018 28.4 3.512 21.957 C4.432 14.366 3.107 9.184 -1.238 2.895 C-5.305 -1.313 -9.478 -2.44 -15.238 -2.73 C-22.867 -2.365 -27.719 0.401 -32.238 6.52 Z " fill="#FFFFFF" transform="translate(151.23828125,84.10546875)"/>
<path d="M0 0 C13.455 -0.494 13.455 -0.494 16 1.812 C17 4 17 4 16.188 7.25 C15.796 8.157 15.404 9.065 15 10 C15.66 10.66 16.32 11.32 17 12 C17.312 15.5 17.312 15.5 17 19 C13.263 21.491 11.255 21.207 6.812 21.125 C4.564 21.084 2.316 21.043 0 21 C0 14.07 0 7.14 0 0 Z M3 3 C3 4.98 3 6.96 3 9 C4.279 9.021 5.558 9.041 6.875 9.062 C7.594 9.074 8.314 9.086 9.055 9.098 C11 9 11 9 13 8 C13 6.35 13 4.7 13 3 C9.424 1.762 6.663 2.251 3 3 Z M3 12 C2.957 14 2.959 16 3 18 C4.895 19.895 7.571 19.18 10.09 19.23 C12 19 12 19 14 17 C13.625 14.375 13.625 14.375 13 12 C9.7 12 6.4 12 3 12 Z " fill="#FFFFFF" transform="translate(127,90)"/>
<path d="M0 0 C5 1 5 1 6.21 2.734 C6.477 3.47 6.744 4.206 7.02 4.965 C7.169 5.365 7.169 5.365 7.928 7.389 C8.22 8.23 8.512 9.071 8.812 9.938 C9.124 10.775 9.435 11.612 9.756 12.475 C12 18.605 12 18.605 12 21 C10.68 21 9.36 21 8 21 C7.67 19.02 7.34 17.04 7 15 C5.515 15.165 5.515 15.165 -2 16 C-2.33 16.825 -2.33 16.825 -4 21 C-5.32 20.67 -6.64 20.34 -8 20 C-5.36 13.4 -2.72 6.8 0 0 Z M2 4 C-1 9.75 -1 9.75 -1 12 C0.98 12 2.96 12 5 12 C4.34 9.36 3.68 6.72 3 4 C2.67 4 2.34 4 2 4 Z " fill="#FFFFFF" transform="translate(61,90)"/>
<path d="M0 0 C0.66 0 1.32 0 2 0 C2.33 0.99 2.66 1.98 3 3 C2.01 2.67 1.02 2.34 0 2 C0 1.34 0 0.68 0 0 Z " fill="#FFFFFF" transform="translate(80,118)"/>
<path d="M0 0 C0.66 0 1.32 0 2 0 C1.67 0.99 1.34 1.98 1 3 C0.67 2.01 0.34 1.02 0 0 Z " fill="#FFFFFF" transform="translate(84,117)"/>
<path d="M0 0 C1 4 1 4 1 4 Z " fill="#FFFFFF" transform="translate(118,80)"/>
<path d="M0 0 C0.33 0.165 0.33 0.165 2 1 C1.67 1.165 1.67 1.165 0 2 C0 1.34 0 0.68 0 0 Z " fill="#FFFFFF" transform="translate(112,122)"/>
<path d="M0 0 C2 1 2 1 2 1 Z " fill="#FFFFFF" transform="translate(86,123)"/>
<path d="M0 0 C2 1 2 1 2 1 Z " fill="#FFFFFF" transform="translate(114,80)"/>
<path d="M0 0 C2 1 2 1 2 1 Z " fill="#FFFFFF" transform="translate(86,77)"/>
<path d="" fill="#FFFFFF" transform="translate(0,0)"/>
<path d="" fill="#FFFFFF" transform="translate(0,0)"/>
<path d="" fill="#FFFFFF" transform="translate(0,0)"/>
<path d="" fill="#FFFFFF" transform="translate(0,0)"/>
<path d="" fill="#FFFFFF" transform="translate(0,0)"/>
<path d="" fill="#FFFFFF" transform="translate(0,0)"/>
<path d="" fill="#FFFFFF" transform="translate(0,0)"/>
<path d="" fill="#FFFFFF" transform="translate(0,0)"/>
</svg>
