<?xml version="1.0" encoding="UTF-8"?>
<!-- Generator: visioncortex VTracer 0.6.12 -->
<svg version="1.1" xmlns="http://www.w3.org/2000/svg" width="200" height="200">
<path d="M0 0 C16.959 13.731 28.787 33.976 31.386 55.746 C33.48 81.007 28.449 104.138 11.886 123.809 C-3.939 141.764 -24.786 153.043 -48.716 154.91 C-73.611 156.284 -96.257 148.103 -114.864 131.559 C-130.904 116.594 -140.854 95.829 -141.993 73.93 C-142.569 54.705 -139.153 39.4 -129.614 22.746 C-129.13 21.895 -128.647 21.045 -128.149 20.168 C-116.008 0.601 -96.168 -12.001 -74.086 -17.527 C-47.348 -23.122 -21.432 -16.653 0 0 Z M-112.614 12.309 C-127.867 28.012 -135.023 48.195 -134.915 69.915 C-134.397 92.059 -124.819 111.285 -109.199 126.634 C-94.413 140.552 -73.813 147.922 -53.614 147.746 C-32.46 146.561 -13.558 138.918 1.386 123.746 C2.167 122.964 2.949 122.181 3.753 121.375 C19.025 105.307 25.139 85.02 24.632 63.238 C23.704 41.438 13.252 22.194 -2.442 7.473 C-35.172 -21.628 -82.202 -16.322 -112.614 12.309 Z " fill="#FFFFFF" transform="translate(154.61376953125,32.25390625)"/>
<path d="M0 0 C0.901 -0.007 1.802 -0.013 2.731 -0.02 C5.714 -0.039 8.698 -0.043 11.682 -0.045 C13.753 -0.052 15.824 -0.059 17.896 -0.066 C22.239 -0.078 26.583 -0.081 30.926 -0.08 C36.496 -0.08 42.066 -0.107 47.636 -0.142 C51.914 -0.164 56.192 -0.168 60.47 -0.167 C62.524 -0.169 64.578 -0.178 66.631 -0.194 C69.502 -0.213 72.372 -0.207 75.242 -0.195 C76.093 -0.207 76.943 -0.218 77.82 -0.229 C81.645 -0.188 83.575 -0.146 86.753 2.126 C88.186 4.291 88.186 4.291 88.061 7.416 C87.186 10.291 87.186 10.291 85.186 12.291 C82.677 12.465 80.28 12.522 77.772 12.486 C77.042 12.483 76.312 12.48 75.561 12.477 C73.227 12.466 70.894 12.441 68.561 12.416 C66.98 12.405 65.399 12.396 63.819 12.388 C59.941 12.366 56.063 12.332 52.186 12.291 C52.19 13.209 52.195 14.127 52.199 15.073 C52.239 23.725 52.27 32.377 52.289 41.028 C52.3 45.477 52.314 49.925 52.337 54.373 C52.358 58.665 52.37 62.957 52.376 67.25 C52.379 68.887 52.386 70.525 52.397 72.163 C52.412 74.457 52.414 76.75 52.413 79.043 C52.417 80.349 52.422 81.655 52.426 83 C52.201 86.077 51.92 87.778 50.186 90.291 C47.415 91.676 45.252 91.478 42.186 91.291 C39.186 89.291 39.186 89.291 38.186 86.291 C38.034 84.008 37.937 81.722 37.869 79.435 C37.849 78.773 37.828 78.112 37.806 77.43 C37.741 75.321 37.682 73.212 37.623 71.103 C37.58 69.671 37.536 68.24 37.492 66.808 C37.385 63.302 37.284 59.797 37.186 56.291 C37.171 57.28 37.157 58.269 37.142 59.288 C37.084 62.952 37.006 66.616 36.923 70.28 C36.89 71.867 36.862 73.454 36.839 75.041 C36.806 77.32 36.754 79.598 36.698 81.876 C36.694 82.232 36.694 82.232 36.678 84.033 C36.618 86.034 36.618 86.034 36.186 89.291 C32.716 91.604 31.261 91.63 27.186 91.291 C24.186 89.291 24.186 89.291 23.186 86.291 C23.096 83.914 23.068 81.535 23.072 79.157 C23.072 78.435 23.072 77.713 23.072 76.968 C23.073 74.582 23.08 72.196 23.088 69.81 C23.09 68.155 23.091 66.5 23.092 64.846 C23.096 60.491 23.106 56.136 23.117 51.781 C23.127 47.337 23.132 42.893 23.137 38.449 C23.148 29.729 23.165 21.01 23.186 12.291 C22.202 12.311 21.218 12.332 20.204 12.354 C16.553 12.426 12.903 12.472 9.251 12.51 C7.671 12.53 6.091 12.558 4.511 12.592 C2.24 12.641 -0.031 12.663 -2.302 12.681 C-3.009 12.702 -3.715 12.722 -4.443 12.744 C-7.677 12.745 -9.368 12.703 -11.792 10.461 C-13.245 7.376 -12.792 5.504 -11.814 2.291 C-7.892 -0.324 -4.552 -0.005 0 0 Z " fill="#FFFFFF" transform="translate(61.814208984375,75.70947265625)"/>
<path d="M0 0 C1.376 0.971 2.675 2.049 3.961 3.137 C6.643 4.175 8.463 4.128 11.398 4.074 C14.844 4.135 16.897 4.651 19.961 6.137 C18.961 8.137 18.961 8.137 16.125 9.207 C14.957 9.555 13.789 9.903 12.586 10.262 C11.423 10.615 10.26 10.968 9.062 11.332 C5.961 12.137 5.961 12.137 2.961 12.137 C2.93 12.663 2.93 12.663 2.773 15.324 C1.67 20.501 -0.76 22.408 -4.852 25.512 C-8.349 26.511 -11.593 26.089 -15.039 25.137 C-18.881 22.714 -19.968 21.279 -22.039 17.137 C-27.649 16.807 -33.259 16.477 -39.039 16.137 C-39.369 15.147 -39.699 14.157 -40.039 13.137 C-35.335 11.271 -31.092 9.768 -26.039 9.137 C-25.977 8.559 -25.915 7.982 -25.852 7.387 C-24.458 3.527 -21.36 1.773 -17.77 0.043 C-12.42 -1.733 -5.272 -2.232 0 0 Z " fill="#FFFFFF" transform="translate(109.0390625,48.86328125)"/>
<path d="M0 0 C0.33 0.99 0.66 1.98 1 3 C1.993 2.967 1.993 2.967 6.957 2.805 C9 3 9 3 12 5 C12 5.66 12 6.32 12 7 C12.66 7 13.32 7 14 7 C14 7.66 14 8.32 14 9 C13.34 9 12.68 9 12 9 C11.67 9.99 11.34 10.98 11 12 C7.526 13.737 3.79 13.599 0 13 C-2.812 10.688 -2.812 10.688 -5 8 C-6.312 6.972 -7.637 5.959 -9 5 C-7.352 0.057 -4.769 -0.258 0 0 Z " fill="#FFFFFF" transform="translate(48,62)"/>
<path d="M0 0 C2.25 -0.312 2.25 -0.312 5 0 C7.312 2.5 7.312 2.5 9 5 C5.25 8 5.25 8 3 8 C2.67 9.32 2.34 10.64 2 12 C-5.198 14.196 -5.198 14.196 -8.812 13.312 C-10.93 12.042 -12.469 10.934 -14 9 C-14 8.34 -14 7.68 -14 7 C-13.34 7 -12.68 7 -12 7 C-12 6.34 -12 5.68 -12 5 C-8.366 2.674 -5.229 2.837 -1 3 C-0.67 2.01 -0.34 1.02 0 0 Z " fill="#FFFFFF" transform="translate(104,33)"/>
</svg>
